<?xml version="1.0" encoding="iso-8859-1"?>
<!-- Generator: Adobe Illustrator 19.0.0, SVG Export Plug-In . SVG Version: 6.00 Build 0)  -->
<svg version="1.1" id="Capa_1" xmlns="http://www.w3.org/2000/svg" xmlns:xlink="http://www.w3.org/1999/xlink" x="0px" y="0px"
	 viewBox="0 0 512 512" style="enable-background:new 0 0 512 512;" xml:space="preserve">
<circle style="fill:#C95757;" cx="256" cy="256" r="256"/>
<path style="fill:#A53D3D;" d="M437.019,74.981c-23.852-23.852-51.245-41.999-80.481-54.47
	c39.799,93.306,21.652,205.435-54.47,281.557s-188.252,94.269-281.557,54.47c12.471,29.237,30.618,56.629,54.47,80.481
	c88.709,88.708,226.322,98.705,326.053,29.989c12.666-8.727,24.72-18.723,35.986-29.989c21.541-21.541,38.441-45.967,50.7-72.033
	C532.352,270.078,515.452,153.413,437.019,74.981z"/>
<circle style="fill:#FFE4CC;" cx="256" cy="256" r="247.15"/>
<path style="fill:#FFD8C7;" d="M430.759,81.235c-20.798-20.798-44.385-37.103-69.553-48.938
	c33.5,90.824,13.8,196.828-59.143,269.771s-178.947,92.643-269.771,59.143c11.835,25.168,28.14,48.755,48.939,69.553
	c96.52,96.52,253.009,96.52,349.529,0S527.279,177.755,430.759,81.235z"/>
<circle style="fill:#FFF0E3;" cx="256" cy="256" r="187.32"/>
<path style="fill:#FFE8DE;" d="M388.453,123.547c-3.739-3.739-7.602-7.275-11.566-10.632c2.163,68.2-22.768,137.096-74.825,189.153
	c-52.055,52.055-120.946,76.986-189.143,74.825c3.355,3.962,6.89,7.823,10.627,11.56c73.152,73.152,191.755,73.152,264.906,0
	S461.605,196.699,388.453,123.547z"/>
<circle style="fill:#C95757;" cx="123.1" cy="330.96" r="79.11"/>
<circle style="fill:#FFE4CC;" cx="123.1" cy="330.96" r="64.22"/>
<circle style="fill:#FF965C;" cx="123.1" cy="330.96" r="49.42"/>
<path style="fill:#FF7B4D;" d="M100.713,308.573c17.155-17.155,43.777-19.048,63.038-5.706c-1.668-2.409-3.561-4.709-5.707-6.854
	c-19.3-19.3-50.591-19.3-69.891,0s-19.3,50.591,0,69.891c2.145,2.145,4.445,4.038,6.854,5.706
	C81.666,352.35,83.558,325.728,100.713,308.573z"/>
<g>
	<circle style="fill:#E54848;" cx="144.1" cy="320.5" r="7.805"/>
	<circle style="fill:#E54848;" cx="117.39" cy="350.69" r="7.805"/>
	<circle style="fill:#E54848;" cx="106.29" cy="315.12" r="7.805"/>
</g>
<circle style="fill:#C95757;" cx="248.97" cy="429.8" r="49.42"/>
<circle style="fill:#FFE4CC;" cx="248.97" cy="429.8" r="41.616"/>
<circle style="fill:#FFFFFF;" cx="248.97" cy="429.8" r="33.17"/>
<path style="fill:#E5E4E3;" d="M234.505,415.332c11.416-11.416,29.081-12.765,41.981-4.059c-1.173-1.737-2.521-3.391-4.059-4.928
	c-12.954-12.954-33.956-12.954-46.91,0c-12.954,12.954-12.954,33.956,0,46.91c1.537,1.537,3.191,2.886,4.928,4.059
	C221.74,444.413,223.089,426.748,234.505,415.332z"/>
<path style="fill:#FFC1AD;" d="M81.235,81.235c-15.002,15.002-27.668,31.453-38.006,48.902l338.634,338.634
	c17.448-10.338,33.9-23.005,48.902-38.006c17.345-17.345,31.556-36.635,42.667-57.157L138.393,38.568
	C117.87,49.679,98.581,63.89,81.235,81.235z"/>
<path style="fill:#FFDCD2;" d="M123.514,123.547c-15.222,15.222-27.265,32.417-36.152,50.756l250.303,250.302
	c18.339-8.887,35.534-20.93,50.756-36.152c17.66-17.659,31.042-37.971,40.175-59.649L183.164,83.372
	C161.486,92.505,141.174,105.888,123.514,123.547z"/>
<path style="fill:#FFFDE9;" d="M508.468,385.738c2.003,2.003,2.603,5.007,1.527,7.627c-5.555,13.526-16.216,34.184-36.184,53.696
	c-18.64,18.214-37.985,28.195-51.088,33.573c-2.618,1.075-5.62,0.472-7.621-1.529L32.748,96.751
	c-2.054-2.054-2.641-5.166-1.446-7.813c5.986-13.257,16.393-31.864,34.126-50.014c19.109-19.558,39.065-30.743,52.835-36.967
	c2.663-1.203,5.786-0.637,7.853,1.429L508.468,385.738z"/>
<path style="fill:#FFFFD2;" d="M508.468,385.738L126.116,3.386c-2.066-2.066-5.19-2.632-7.853-1.429
	c-8.421,3.807-19.16,9.482-30.6,17.78l366.002,366.001c2.003,2.003,2.603,5.007,1.526,7.627
	c-5.555,13.526-16.216,34.184-36.184,53.696c-6.561,6.411-13.204,11.783-19.637,16.312l15.732,15.731
	c2.001,2.001,5.003,2.604,7.621,1.529c13.103-5.378,32.448-15.359,51.087-33.573c19.968-19.512,30.63-40.17,36.184-53.696
	C511.071,390.745,510.471,387.741,508.468,385.738z"/>
<g>
	<circle style="fill:#FFDCCA;" cx="231.97" cy="164.25" r="7.805"/>
	<circle style="fill:#FFDCCA;" cx="191.75" cy="161.3" r="7.805"/>
	<circle style="fill:#FFDCCA;" cx="214.1" cy="218.54" r="7.805"/>
	<circle style="fill:#FFDCCA;" cx="250.7" cy="202.93" r="7.805"/>
	<circle style="fill:#FFDCCA;" cx="258.5" cy="263.81" r="7.805"/>
	<circle style="fill:#FFDCCA;" cx="306.2" cy="264.32" r="7.805"/>
	<circle style="fill:#FFDCCA;" cx="298.39" cy="310.11" r="7.805"/>
	<circle style="fill:#FFDCCA;" cx="347.3" cy="272.13" r="7.805"/>
	<circle style="fill:#FFDCCA;" cx="302.21" cy="218.54" r="7.805"/>
</g>
<g>
</g>
<g>
</g>
<g>
</g>
<g>
</g>
<g>
</g>
<g>
</g>
<g>
</g>
<g>
</g>
<g>
</g>
<g>
</g>
<g>
</g>
<g>
</g>
<g>
</g>
<g>
</g>
<g>
</g>
</svg>
